<?xml version="1.0" standalone="no"?>
<!DOCTYPE svg PUBLIC "-//W3C//DTD SVG 20010904//EN"
 "http://www.w3.org/TR/2001/REC-SVG-20010904/DTD/svg10.dtd">
<svg version="1.0" xmlns="http://www.w3.org/2000/svg"
 width="600.000000pt" height="600.000000pt" viewBox="0 0 600.000000 600.000000"
 preserveAspectRatio="xMidYMid meet">

<g transform="translate(0.000000,600.000000) scale(0.100000,-0.100000)"
fill="#000000" stroke="none">
<path d="M0 3000 l0 -3000 3000 0 3000 0 0 3000 0 3000 -3000 0 -3000 0 0
-3000z m5700 -185 l0 -2135 -2695 0 -2695 0 0 2135 0 2135 2695 0 2695 0 0
-2135z"/>
<path d="M2413 3886 c0 -59 -25 -96 -64 -96 -11 0 -29 -5 -40 -11 -15 -7 -24
-7 -35 2 -18 15 -41 -2 -46 -34 -2 -14 -9 -20 -18 -18 -8 2 -26 3 -38 2 -13 0
-36 8 -50 18 -23 16 -97 51 -108 51 -12 0 -1 -34 21 -66 43 -63 30 -89 -33
-72 -35 10 -47 6 -47 -15 0 -14 -89 -11 -117 4 -21 11 -21 13 -9 -29 9 -30 8
-32 -17 -37 -15 -3 -41 -10 -58 -15 -46 -15 -62 -12 -115 17 -27 14 -51 24
-54 21 -9 -9 19 -54 50 -81 17 -14 27 -28 23 -32 -4 -4 -28 -11 -54 -16 -36
-7 -58 -5 -96 9 -42 15 -50 15 -58 2 -6 -10 -22 -13 -49 -11 -44 3 -49 -3 -26
-33 23 -30 18 -46 -12 -46 -25 0 -25 -1 -9 -19 49 -54 -56 -82 -151 -40 -27
12 -56 26 -66 30 -26 14 -21 -7 8 -29 14 -11 25 -29 25 -41 0 -12 11 -26 29
-35 37 -20 51 -51 19 -43 -13 3 -31 0 -41 -8 -15 -11 -23 -11 -45 1 -60 31
-69 10 -15 -35 20 -17 34 -34 29 -38 -4 -4 -10 -3 -14 3 -4 6 -23 10 -43 10
-22 0 -47 9 -70 26 -39 30 -79 44 -79 29 0 -12 62 -61 78 -61 6 0 21 -13 33
-29 11 -15 39 -38 61 -51 26 -15 37 -27 34 -37 -3 -8 -6 -18 -6 -23 0 -4 -19
-6 -42 -3 -37 4 -40 3 -23 -8 23 -14 35 -29 35 -45 0 -30 -39 -20 -149 36
-118 60 -141 68 -141 51 0 -19 29 -38 136 -91 120 -59 119 -58 113 -65 -3 -2
-33 4 -67 13 -42 11 -65 13 -70 6 -4 -5 -26 -16 -48 -23 -45 -15 -66 -10 -207
43 -68 26 -131 34 -141 17 -6 -9 55 -61 72 -61 5 0 17 -9 28 -21 10 -12 35
-30 55 -40 32 -16 154 -55 199 -63 8 -2 15 -9 15 -17 0 -8 9 -14 20 -14 11 0
26 -4 34 -9 19 -12 230 -9 306 5 32 6 78 8 100 4 32 -4 47 -1 66 13 34 26 77
40 124 41 38 1 45 -4 110 -76 39 -42 77 -88 86 -102 9 -14 35 -46 58 -69 45
-48 46 -51 29 -99 -14 -39 -6 -50 25 -35 12 6 33 12 47 14 23 3 25 0 28 -46 3
-44 5 -48 25 -41 55 17 63 16 101 -14 38 -30 63 -31 81 -1 8 13 42 13 50 0 3
-5 1 -19 -5 -30 -9 -16 -8 -20 4 -20 21 0 86 32 86 42 0 4 7 5 15 2 13 -5 12
-12 -6 -43 -12 -20 -31 -45 -41 -57 -25 -28 -23 -34 12 -34 17 0 30 -4 30 -9
0 -4 9 -20 21 -35 17 -22 24 -24 41 -15 23 13 63 -3 86 -33 20 -27 74 -23 102
7 22 23 25 24 41 9 13 -11 28 -15 48 -11 36 8 77 -11 90 -40 12 -26 38 -29 89
-11 29 11 35 10 43 -5 13 -23 52 -22 74 3 16 18 20 18 46 4 22 -11 29 -22 29
-44 0 -35 23 -41 42 -10 18 29 33 25 58 -15 12 -19 29 -35 38 -35 18 0 62 57
62 79 0 8 13 11 43 9 36 -3 43 -7 47 -28 7 -36 33 -31 44 8 9 31 12 33 39 28
16 -3 35 -6 42 -6 7 0 15 -14 19 -30 5 -28 9 -30 39 -27 48 5 57 14 57 58 l0
39 73 -2 c75 -3 87 -9 87 -45 0 -12 5 -25 11 -29 9 -5 10 8 7 45 -3 28 -1 51
3 51 4 0 29 18 54 40 52 45 48 49 -25 20 -27 -11 -50 -15 -50 -10 0 13 -49 44
-57 36 -3 -3 -1 -17 5 -30 10 -22 8 -26 -11 -32 -12 -4 -60 -7 -107 -7 -55 0
-88 -4 -95 -12 -5 -7 -29 -15 -52 -19 l-43 -6 6 30 c4 17 2 30 -3 30 -6 0 -13
-13 -16 -29 -5 -22 -13 -30 -38 -35 -57 -11 -69 -8 -69 18 0 14 -4 28 -10 31
-6 3 -10 48 -10 101 0 87 1 94 20 94 19 0 20 -7 20 -100 0 -98 0 -100 25 -106
14 -4 29 -4 32 0 3 3 8 51 11 106 l5 100 27 0 28 0 -1 -85 c-1 -68 3 -89 16
-102 9 -10 17 -12 17 -6 0 6 7 28 16 49 13 32 17 35 25 21 6 -9 20 -17 33 -17
13 0 30 -10 38 -21 18 -28 54 -18 62 17 4 13 18 50 31 81 21 47 27 54 40 43 8
-7 15 -23 15 -35 0 -46 47 -61 128 -43 36 9 42 14 42 37 0 48 23 191 31 191 4
0 7 -33 7 -72 -1 -106 1 -130 11 -124 5 4 7 -2 4 -13 -2 -10 -17 -24 -31 -31
-41 -19 -11 -23 33 -4 29 12 35 18 24 25 -12 7 -12 12 -1 29 9 14 13 67 13
174 0 144 1 155 21 172 11 11 34 37 50 59 l30 40 -5 -153 c-2 -84 -1 -155 4
-158 5 -3 9 -22 9 -43 0 -34 -4 -39 -45 -60 -62 -31 -63 -60 -2 -59 23 1 47 5
54 10 6 5 55 10 107 12 l96 3 0 -27 c0 -30 24 -58 35 -41 3 6 1 20 -5 31 -16
30 0 24 31 -12 l28 -33 1 43 c0 23 -4 42 -9 42 -5 0 -20 14 -32 31 l-22 32 26
-18 c31 -20 65 -16 197 21 117 32 200 45 200 29 0 -14 94 -35 157 -35 25 0 53
-4 63 -10 10 -5 40 -10 67 -11 26 -1 54 -6 61 -12 8 -6 12 -6 12 0 0 6 43 10
105 9 116 -1 119 1 131 62 10 51 -3 95 -49 163 -50 76 -305 332 -442 444 -53
44 -109 90 -124 103 -14 13 -39 30 -56 39 -31 16 -129 113 -146 144 -7 13 -5
20 7 27 9 5 15 12 15 15 -1 10 0 10 33 1 40 -10 116 -51 151 -82 38 -34 70
-52 93 -52 10 0 23 -5 30 -12 19 -19 26 0 11 30 -15 29 -55 72 -67 72 -4 0
-30 24 -58 54 -50 52 -198 169 -239 188 -11 5 -45 24 -75 42 -173 106 -356
178 -515 201 -17 3 -66 14 -109 25 -44 11 -88 20 -99 20 -11 0 -28 7 -37 15
-13 12 -24 13 -42 6 -18 -7 -34 -4 -64 10 -21 10 -59 18 -83 19 -37 0 -48 5
-75 35 -25 27 -35 32 -44 23 -7 -7 -12 -18 -12 -25 0 -7 -7 -13 -15 -13 -27 0
-199 30 -236 41 -21 7 -43 8 -50 3 -20 -12 -35 -14 -129 -14 -108 0 -157 4
-166 12 -3 4 -22 -2 -42 -12 -26 -14 -40 -17 -54 -9 -11 6 -38 12 -61 15 -33
3 -48 11 -70 39 -16 19 -32 35 -37 35 -4 0 -7 -24 -7 -54z m-73 -146 c0 -5 -4
-10 -10 -10 -5 0 -10 5 -10 10 0 6 5 10 10 10 6 0 10 -4 10 -10z m2115 -470
c3 -5 2 -10 -4 -10 -5 0 -13 5 -16 10 -3 6 -2 10 4 10 5 0 13 -4 16 -10z
m-2004 -182 c1 -90 1 -248 1 -353 -1 -104 -1 -241 -2 -303 0 -74 -4 -111 -10
-107 -6 4 -9 9 -6 13 2 4 -1 84 -6 177 -11 213 -11 272 3 468 7 87 9 183 6
213 -3 30 -2 54 4 54 5 0 10 -70 10 -162z m-46 0 c-4 -51 -6 -113 -6 -138 1
-25 -3 -51 -7 -58 -5 -7 -6 -30 -2 -51 4 -21 4 -58 1 -82 -4 -24 -3 -64 2 -89
4 -25 8 -76 7 -115 -2 -147 -4 -195 -9 -195 -3 1 -16 9 -28 19 -21 18 -23 27
-23 128 0 59 7 176 15 258 8 83 15 207 15 276 0 69 3 129 7 132 3 4 13 7 20 7
12 0 13 -17 8 -92z m1863 42 c13 -19 32 -45 43 -58 17 -20 19 -37 18 -142 0
-66 -4 -118 -7 -116 -9 5 -5 -228 6 -326 5 -48 5 -75 -2 -71 -5 4 -6 1 0 -8 5
-8 9 -28 11 -46 2 -31 0 -32 -43 -39 -24 -3 -44 -10 -44 -15 0 -6 -8 -6 -19 0
-21 12 -18 50 8 91 14 22 14 23 0 18 -12 -5 -16 1 -16 23 0 15 5 26 10 22 5
-3 4 4 -2 15 -6 11 -8 28 -5 36 4 9 1 16 -6 16 -10 0 -9 5 2 18 27 31 30 53 8
59 -11 3 -20 12 -20 19 0 8 -7 14 -16 14 -13 0 -14 -3 -4 -15 7 -8 10 -21 7
-30 -4 -8 -2 -17 4 -20 5 -4 12 1 15 9 3 9 10 16 15 16 5 0 3 -11 -3 -25 -6
-14 -17 -24 -24 -21 -8 3 -11 0 -8 -8 3 -8 2 -16 -3 -19 -4 -3 -9 7 -10 21
-16 197 -16 193 1 186 11 -4 16 -1 16 11 0 11 -5 15 -15 11 -8 -3 -15 -2 -15
3 0 11 39 24 63 21 16 -1 21 8 15 28 -2 4 -6 6 -10 5 -5 -2 -8 2 -8 7 0 6 -6
10 -14 10 -9 0 -12 7 -9 21 4 14 8 17 13 9 4 -7 13 -9 19 -6 6 4 11 0 12 -11
0 -15 2 -15 9 3 5 12 7 32 5 45 -2 13 -5 33 -7 44 -2 11 2 19 9 18 8 -2 7 6
-3 25 -7 15 -14 34 -14 42 0 12 -2 12 -9 2 -7 -11 -9 -11 -14 2 -4 9 -1 16 5
16 7 0 6 5 -2 15 -6 8 -9 19 -5 25 4 6 -1 18 -11 25 -13 10 -15 14 -5 15 9 0
12 8 8 25 -7 37 21 29 51 -15z m-81 8 c-3 -8 -6 -5 -6 6 -1 11 2 17 5 13 3 -3
4 -12 1 -19z m-248 -81 c13 -13 3 -37 -15 -37 -11 0 -14 16 -13 68 1 66 1 66
10 23 5 -25 13 -49 18 -54z m248 41 c-3 -8 -6 -5 -6 6 -1 11 2 17 5 13 3 -3 4
-12 1 -19z m177 -27 c26 -29 15 -46 -12 -21 -22 21 -29 40 -14 40 5 0 17 -9
26 -19z m-538 -36 c-3 -9 0 -15 8 -15 9 0 13 -10 10 -32 -1 -18 -3 -49 -4 -68
l-2 -35 -9 40 c-6 22 -8 48 -5 57 2 10 0 21 -5 24 -13 8 -11 44 2 44 6 0 9 -7
5 -15z m-933 -50 c27 -35 37 -61 46 -117 7 -40 20 -118 30 -173 l18 -100 -36
-23 c-50 -31 -72 -26 -86 23 -7 25 -17 40 -26 39 -12 -1 -14 6 -11 24 3 16 -1
29 -11 37 -14 10 -16 29 -13 116 2 57 4 130 5 162 1 54 2 57 26 57 17 0 34
-13 58 -45z m-347 -150 c4 -27 1 -57 -10 -88 -9 -26 -16 -63 -16 -82 0 -19 -4
-35 -9 -35 -4 0 -7 10 -6 23 1 12 3 99 5 192 l2 170 13 -70 c8 -38 17 -88 21
-110z m1889 155 c5 -8 11 -7 21 1 21 17 54 -18 43 -46 -14 -37 -22 -60 -26
-75 -7 -24 -3 -78 7 -106 11 -27 4 -74 -11 -74 -5 0 -9 -11 -9 -24 0 -14 -5
-28 -11 -31 -6 -4 -14 -17 -19 -29 -6 -14 -9 5 -10 64 -1 47 -2 140 -3 207 -2
115 2 139 18 113z m-207 -40 c7 -12 8 -20 2 -20 -5 0 -10 5 -10 11 0 5 -4 8
-8 5 -5 -3 -9 1 -9 9 0 21 10 19 25 -5z m-2299 -62 c0 -55 -2 -59 -11 -35 -9
25 -4 97 7 97 3 0 5 -28 4 -62z m2308 2 c2 -25 -13 -18 -20 9 -3 12 0 18 7 15
6 -2 12 -14 13 -24z m453 -42 c0 -4 18 -17 40 -28 38 -20 60 -56 46 -79 -3 -5
-3 -17 1 -27 6 -16 7 -16 19 0 11 16 13 16 19 -5 5 -15 2 -26 -9 -34 -20 -15
-10 -25 24 -25 l27 0 -4 -82 c-4 -80 -5 -83 -46 -129 -64 -71 -72 -66 -73 44
0 55 -7 114 -17 146 -9 30 -17 70 -17 89 0 35 -52 140 -77 155 -7 4 -13 13
-13 18 0 6 18 0 40 -12 22 -13 40 -26 40 -31z m-1567 -63 l27 -24 0 -146 c0
-129 -2 -145 -17 -145 -9 0 -24 -7 -33 -15 -16 -15 -18 -10 -29 60 -10 72 -8
101 7 91 4 -2 6 43 5 100 -1 57 1 104 5 104 4 0 19 -12 35 -25z m112 -302 c-3
-20 -12 -33 -20 -33 -13 0 -15 26 -15 155 0 136 2 155 18 164 16 9 17 0 20
-122 2 -73 0 -147 -3 -164z m-2285 267 c0 -5 -4 -10 -9 -10 -6 0 -13 5 -16 10
-3 6 1 10 9 10 9 0 16 -4 16 -10z m2675 -58 c15 -58 19 -166 5 -157 -4 3 -11
-1 -13 -7 -4 -8 -6 -7 -6 4 -1 9 4 20 9 23 6 3 10 12 10 18 0 7 -4 6 -10 -3
-7 -11 -10 -7 -10 18 0 17 -1 34 -2 37 -10 32 -13 95 -4 96 6 0 6 3 -2 6 -6 2
-9 9 -6 15 9 14 14 5 29 -50z m-1000 -272 c-4 -155 -8 -205 -17 -205 -7 0 -12
6 -10 13 1 6 -1 12 -5 12 -5 0 -9 28 -10 63 -1 34 -9 102 -17 151 -19 105 -20
180 -4 239 l11 43 28 -55 28 -55 -4 -206z m-118 178 c-3 -8 -6 -5 -6 6 -1 11
2 17 5 13 3 -3 4 -12 1 -19z m493 -84 c0 -8 -4 -12 -10 -9 -5 3 -10 10 -10 16
0 5 5 9 10 9 6 0 10 -7 10 -16z m1192 -31 c-3 -16 -7 -22 -10 -15 -4 13 4 42
11 42 2 0 2 -12 -1 -27z m-1357 -178 c8 -65 15 -122 15 -126 0 -10 -49 -8 -56
2 -10 17 -6 113 5 117 7 2 11 33 12 75 1 91 5 80 24 -68z m1832 78 c-3 -10 -5
-2 -5 17 0 19 2 27 5 18 2 -10 2 -26 0 -35z m-1662 -168 c0 -63 -2 -115 -5
-116 -3 -1 -28 -3 -56 -4 l-52 -3 -5 41 c-3 23 -3 65 -2 92 2 28 4 76 4 107
l1 57 58 -29 57 -29 0 -116z m625 115 c0 -5 -2 -10 -4 -10 -3 0 -8 5 -11 10
-3 6 -1 10 4 10 6 0 11 -4 11 -10z m-512 -16 c21 -6 22 -11 22 -96 0 -69 -3
-87 -12 -81 -7 4 -21 6 -31 5 -16 -3 -17 6 -16 87 1 50 5 91 8 91 3 0 16 -3
29 -6z m-558 -24 c0 -5 -4 -10 -10 -10 -5 0 -10 5 -10 10 0 6 5 10 10 10 6 0
10 -4 10 -10z m-112 -49 c-15 -5 -18 3 -11 29 l7 25 6 -25 c3 -14 2 -27 -2
-29z"/>
<path d="M4215 2760 c28 -12 47 -12 40 0 -3 6 -18 10 -33 9 -24 0 -25 -1 -7
-9z"/>
<path d="M4227 2729 c7 -7 15 -10 18 -7 3 3 -2 9 -12 12 -14 6 -15 5 -6 -5z"/>
<path d="M4180 2711 c0 -5 5 -13 10 -16 6 -3 10 -12 10 -18 0 -7 -4 -6 -11 3
-9 12 -10 12 -5 -3 3 -10 6 -21 6 -23 0 -2 10 -4 23 -4 15 0 18 3 9 8 -7 5
-11 19 -10 32 2 16 -3 25 -14 28 -10 2 -18 -1 -18 -7z"/>
<path d="M4286 2602 c-3 -5 -3 -17 -1 -28 2 -10 4 -21 4 -24 2 -11 21 26 21
43 0 17 -15 23 -24 9z"/>
<path d="M4280 2400 c0 -5 5 -10 11 -10 5 0 7 5 4 10 -3 6 -8 10 -11 10 -2 0
-4 -4 -4 -10z"/>
<path d="M4767 2589 c-10 -35 -8 -69 2 -69 12 0 21 61 11 79 -5 10 -9 7 -13
-10z"/>
<path d="M786 3265 c23 -35 91 -49 97 -20 3 13 -61 44 -91 45 -22 0 -22 -1 -6
-25z"/>
<path d="M1517 2586 c-20 -8 -44 -19 -52 -26 -17 -14 -45 -67 -45 -86 0 -7 -7
-20 -16 -29 -14 -14 -15 -18 -1 -33 8 -9 13 -22 10 -28 -2 -6 3 -14 12 -17 19
-8 68 10 61 22 -3 5 10 25 28 45 31 32 86 134 86 157 0 13 -39 10 -83 -5z"/>
<path d="M4340 2130 c0 -5 5 -10 11 -10 5 0 7 5 4 10 -3 6 -8 10 -11 10 -2 0
-4 -4 -4 -10z"/>
</g>
</svg>
